<?xml version="1.0" encoding="UTF-8" standalone="no"?>
<!-- Created with Pixodesk SVG (https://pixodesk.com) -->
<svg xmlns="http://www.w3.org/2000/svg" viewBox="0 0 48 48" text-rendering="geometricPrecision" shape-rendering="geometricPrecision" fill="none">
  <g fill="#0071e3" style="pointer-events:none">
    <path fill="#0071e3" d="M24,48C37.2548,48,48,37.2548,48,24C48,10.7452,37.2548,0,24,0C10.7452,0,0,10.7452,0,24C0,37.2548,10.7452,48,24,48z"/>
  </g>
  <g transform="translate(8.4898, 9.5)">
    <g transform="translate(-1254, -744)">
      <g>
        <g>
          <g>
            <g>
              <path fill="#ffffff" d="M1281.04,758.923C1280.56,758.923,1280.13,758.5,1280.13,758.017C1280.13,757.835,1280.19,757.654,1280.31,757.533L1282.07,754.996C1282.37,754.573,1282.91,754.513,1283.34,754.754C1283.76,754.996,1283.82,755.6,1283.58,756.023L1281.82,758.56C1281.58,758.802,1281.28,758.923,1281.04,758.923z"/>
              <path fill="#ffffff" d="M1281.04,758.923C1280.86,758.923,1280.68,758.862,1280.56,758.742L1277.96,757.05C1277.54,756.808,1277.41,756.204,1277.66,755.781C1277.9,755.358,1278.5,755.237,1278.93,755.479L1278.99,755.54L1281.52,757.292C1281.95,757.594,1282.07,758.138,1281.76,758.56C1281.58,758.802,1281.28,758.923,1281.04,758.923z"/>
              <path fill="#ffffff" d="M1268.65,771.852C1261.28,771.852,1255.3,765.871,1255.3,758.56C1255.3,751.25,1261.28,745.208,1268.65,745.148C1275.12,745.148,1280.62,749.74,1281.76,756.083C1281.82,756.567,1281.52,757.05,1281.04,757.171C1280.56,757.231,1280.07,756.929,1279.95,756.446C1278.8,750.223,1272.82,746.054,1266.54,747.202C1260.26,748.35,1256.15,754.331,1257.3,760.615C1258.44,766.898,1264.49,771.006,1270.71,769.858C1273.85,769.254,1276.63,767.381,1278.38,764.662C1278.62,764.24,1279.23,764.119,1279.65,764.36C1280.07,764.602,1280.19,765.206,1279.95,765.629C1277.47,769.496,1273.25,771.852,1268.65,771.852z"/>
              <path fill="#ffffff" d="M1268.65,756.748C1265.45,756.748,1261.95,755.781,1261.95,753.667C1261.95,751.552,1265.39,750.646,1268.65,750.646C1271.92,750.646,1275.36,751.612,1275.36,753.667C1275.36,755.721,1271.86,756.748,1268.65,756.748zM1268.65,752.398C1265.57,752.398,1263.88,753.304,1263.76,753.667C1263.88,753.969,1265.51,754.935,1268.65,754.935C1271.8,754.935,1273.37,754.029,1273.55,753.667C1273.37,753.304,1271.74,752.398,1268.65,752.398z"/>
              <path fill="#ffffff" d="M1268.65,759.95C1265.45,759.95,1261.95,758.983,1261.95,756.869C1261.95,756.385,1262.37,755.963,1262.85,755.963C1263.34,755.963,1263.76,756.385,1263.76,756.869C1263.88,757.231,1265.51,758.138,1268.65,758.138C1271.8,758.138,1273.43,757.231,1273.55,756.869C1273.55,756.385,1273.97,755.963,1274.45,755.963C1274.94,755.963,1275.36,756.385,1275.36,756.869C1275.36,758.983,1271.86,759.95,1268.65,759.95z"/>
              <path fill="#ffffff" d="M1268.65,763.213C1265.45,763.213,1261.95,762.246,1261.95,760.131C1261.95,759.648,1262.37,759.225,1262.85,759.225C1263.34,759.225,1263.76,759.648,1263.76,760.131C1263.88,760.433,1265.51,761.4,1268.65,761.4C1271.8,761.4,1273.43,760.494,1273.55,760.131C1273.55,759.648,1273.97,759.225,1274.45,759.225C1274.94,759.225,1275.36,759.648,1275.36,760.131C1275.36,762.246,1271.86,763.213,1268.65,763.213z"/>
              <path fill="#ffffff" d="M1268.65,766.415C1265.45,766.415,1261.95,765.448,1261.95,763.333L1261.95,753.606C1261.95,753.123,1262.37,752.7,1262.85,752.7C1263.34,752.7,1263.76,753.123,1263.76,753.606L1263.76,763.273C1263.88,763.635,1265.51,764.542,1268.65,764.542C1271.8,764.542,1273.43,763.635,1273.55,763.273L1273.55,753.606C1273.55,753.123,1273.97,752.7,1274.45,752.7C1274.94,752.7,1275.36,753.123,1275.36,753.606L1275.36,763.273C1275.36,765.448,1271.86,766.415,1268.65,766.415z"/>
            </g>
          </g>
        </g>
      </g>
    </g>
  </g>
</svg>