<?xml version="1.0" encoding="UTF-8" standalone="no"?>
<!-- Created with Pixodesk SVG (https://pixodesk.com) -->
<svg xmlns="http://www.w3.org/2000/svg" viewBox="0 0 48 48" text-rendering="geometricPrecision" shape-rendering="geometricPrecision" fill="none">
  <g fill="#0071e3" style="pointer-events:none">
    <path fill="#0071e3" d="M24,48C37.2548,48,48,37.2548,48,24C48,10.7452,37.2548,0,24,0C10.7452,0,0,10.7452,0,24C0,37.2548,10.7452,48,24,48z"/>
  </g>
  <g transform="translate(8.5, 8.7085)">
    <g transform="translate(-1324, -772)">
      <g>
        <g>
          <g>
            <g>
              <path fill="#ffffff" d="M1330.92,782.969L1329.33,782.969L1329.33,774.812L1350.25,774.812L1350.25,782.969L1348.66,782.969L1348.66,776.397L1330.92,776.397L1330.92,782.969z"/>
              <path fill="#ffffff" d="M1339,775.606L1340.81,775.606L1340.81,782.967L1339,782.967L1339,775.606z"/>
              <path fill="#ffffff" d="M1328.4,783.911L1328.4,798.185L1331.57,798.185L1331.57,783.911L1328.4,783.911zM1328.4,782.325L1331.57,782.325C1332.45,782.325,1333.16,783.036,1333.16,783.911L1333.16,798.185C1333.16,799.061,1332.45,799.771,1331.57,799.771L1328.4,799.771C1327.52,799.771,1326.81,799.061,1326.81,798.185L1326.81,783.911C1326.81,783.036,1327.52,782.325,1328.4,782.325zM1337.91,783.911L1337.91,798.185L1341.09,798.185L1341.09,783.911L1337.91,783.911zM1337.91,782.325L1341.09,782.325C1341.96,782.325,1342.67,783.036,1342.67,783.911L1342.67,798.185C1342.67,799.061,1341.96,799.771,1341.09,799.771L1337.91,799.771C1337.04,799.771,1336.33,799.061,1336.33,798.185L1336.33,783.911C1336.33,783.036,1337.04,782.325,1337.91,782.325zM1347.43,783.911L1347.43,798.185L1350.6,798.185L1350.6,783.911L1347.43,783.911zM1347.43,782.325L1350.6,782.325C1351.48,782.325,1352.19,783.036,1352.19,783.911L1352.19,798.185C1352.19,799.061,1351.48,799.771,1350.6,799.771L1347.43,799.771C1346.55,799.771,1345.84,799.061,1345.84,798.185L1345.84,783.911C1345.84,783.036,1346.55,782.325,1347.43,782.325z"/>
            </g>
          </g>
        </g>
      </g>
    </g>
  </g>
</svg>