<?xml version="1.0" encoding="UTF-8" standalone="no"?>
<!-- Created with Pixodesk SVG (https://pixodesk.com) -->
<svg xmlns="http://www.w3.org/2000/svg" viewBox="0 0 48 48" text-rendering="geometricPrecision" shape-rendering="geometricPrecision" fill="none">
  <g fill="#0071e3" style="pointer-events:none">
    <path fill="#0071e3" d="M24,48C37.2548,48,48,37.2548,48,24C48,10.7452,37.2548,0,24,0C10.7452,0,0,10.7452,0,24C0,37.2548,10.7452,48,24,48z"/>
  </g>
  <g transform="translate(5, 7.9825)">
    <g transform="translate(-1261, -701)">
      <g>
        <g>
          <g>
            <g>
              <path fill="#ffffff" d="M1272.26,714.589L1273.57,715.579C1274.87,716.625,1276.9,716.625,1278.2,715.579L1279.51,714.589C1279.94,714.256,1280.54,714.256,1280.98,714.589L1282.29,715.579C1283.58,716.625,1285.61,716.625,1286.91,715.579L1288.22,714.589C1288.65,714.256,1289.25,714.256,1289.69,714.589L1291,715.579C1292.3,716.625,1294.33,716.625,1295.62,715.579L1295.75,715.484C1295.07,723.625,1288.28,730.019,1280.01,730.019C1271.62,730.019,1264.75,723.431,1264.25,715.115L1264.86,715.579C1266.15,716.625,1268.19,716.625,1269.48,715.579L1270.79,714.589C1271.22,714.256,1271.83,714.256,1272.26,714.589zM1271.01,717.424L1270.98,717.446C1270,718.229,1268.81,718.661,1267.59,718.747C1269.49,723.872,1274.35,727.488,1279.99,727.488C1285.65,727.488,1290.52,723.857,1292.41,718.702C1291.32,718.555,1290.28,718.113,1289.42,717.424L1288.93,717.046L1288.44,717.424L1288.37,717.478C1286.16,719.208,1282.9,719.188,1280.71,717.424L1280.22,717.046L1279.73,717.424L1279.66,717.478C1277.45,719.208,1274.19,719.188,1272,717.424L1271.51,717.046L1271.01,717.424zM1278.31,710.615L1277.28,711.391C1276.94,711.652,1276.46,711.652,1276.12,711.391L1275.09,710.615C1274.01,709.811,1272.53,709.818,1271.46,710.631L1270.43,711.405C1270.09,711.665,1269.61,711.665,1269.27,711.405L1267.94,710.393C1267.72,710.225,1267.44,710.154,1267.16,710.195C1266.9,710.225,1266.65,710.369,1266.5,710.591C1266.16,711.056,1266.24,711.657,1266.7,712.044L1268.02,713.057C1269.1,713.876,1270.59,713.876,1271.67,713.057L1272.7,712.282C1273.05,712.023,1273.52,712.023,1273.86,712.282L1274.89,713.057C1275.97,713.875,1277.46,713.875,1278.54,713.057L1279.57,712.282C1279.91,712.022,1280.38,712.022,1280.73,712.282L1281.76,713.057C1282.84,713.875,1284.32,713.875,1285.4,713.057L1286.44,712.282C1286.78,712.023,1287.25,712.023,1287.59,712.282L1288.63,713.057C1289.7,713.874,1291.19,713.874,1292.27,713.057L1293.3,712.282C1293.76,711.896,1293.84,711.292,1293.5,710.829C1293.35,710.607,1293.1,710.461,1292.84,710.431C1292.56,710.391,1292.28,710.463,1292.06,710.631L1291.03,711.405C1290.68,711.666,1290.21,711.666,1289.87,711.405L1288.83,710.631C1287.76,709.811,1286.27,709.811,1285.19,710.631L1284.16,711.405C1283.82,711.667,1283.34,711.667,1283,711.405L1281.97,710.631C1281.45,710.234,1280.82,710.018,1280.16,710.017C1279.49,710.023,1278.83,710.242,1278.34,710.629L1278.31,710.615z"/>
            </g>
          </g>
        </g>
      </g>
    </g>
  </g>
</svg>