<?xml version="1.0" encoding="UTF-8" standalone="no"?>
<!-- Created with Pixodesk SVG (https://pixodesk.com) -->
<svg xmlns="http://www.w3.org/2000/svg" viewBox="0 0 48 48" text-rendering="geometricPrecision" shape-rendering="geometricPrecision" fill="none">
  <g fill="#0071e3" style="pointer-events:none">
    <path fill="#0071e3" d="M24,48C37.2548,48,48,37.2548,48,24C48,10.7452,37.2548,0,24,0C10.7452,0,0,10.7452,0,24C0,37.2548,10.7452,48,24,48z"/>
  </g>
  <g transform="translate(-1.1775, -1.0161)scale(1.0491, 1.0423)">
    <g transform="translate(-1353.3549, -695.86)">
      <g>
        <g>
          <g>
            <g>
              <path fill="#ffffff" transform="translate(1363, 706)scale(1.0357, 1)" d="M9.24,21.945C9.5589,21.945,9.8175,22.2036,9.8175,22.5225L9.8175,23.6775C9.8175,23.9964,9.5589,24.255,9.24,24.255L2.8875,24.255C2.5686,24.255,2.31,23.9964,2.31,23.6775L2.31,22.5225C2.31,22.2036,2.5686,21.945,2.8875,21.945L9.24,21.945zM17.9025,9.24C21.4109,9.24,24.255,12.0841,24.255,15.5925C24.255,17.0858,23.7289,18.5313,22.7692,19.6753L25.0338,22.3737C25.2387,22.6182,25.2066,22.9824,24.9622,23.1873C24.9621,23.1874,24.9621,23.1874,24.962,23.1875L23.8997,24.0782C23.6553,24.2832,23.2911,24.2511,23.0862,24.0067C23.0861,24.0066,23.0861,24.0066,23.086,24.0065L20.7795,21.259C17.65,22.8448,13.8274,21.5934,12.2416,18.4639C10.6557,15.3344,11.9072,11.5118,15.0367,9.926C15.925,9.4759,16.9067,9.2409,17.9025,9.24zM17.9025,11.55C15.6699,11.55,13.86,13.3599,13.86,15.5925C13.86,17.8251,15.6699,19.635,17.9025,19.635C20.1351,19.635,21.945,17.8251,21.945,15.5925C21.945,13.3599,20.1351,11.55,17.9025,11.55zM9.24,12.705C9.5589,12.705,9.8175,12.9636,9.8175,13.2825L9.8175,14.4375C9.8175,14.7564,9.5589,15.015,9.24,15.015L2.8875,15.015C2.5686,15.015,2.31,14.7564,2.31,14.4375L2.31,13.2825C2.31,12.9636,2.5686,12.705,2.8875,12.705L9.24,12.705zM24.8325,3.465C25.1514,3.465,25.41,3.7236,25.41,4.0425L25.41,5.1975C25.41,5.5164,25.1514,5.775,24.8325,5.775L2.8875,5.775C2.5686,5.775,2.31,5.5164,2.31,5.1975L2.31,4.0425C2.31,3.7236,2.5686,3.465,2.8875,3.465L24.8325,3.465z"/>
            </g>
          </g>
        </g>
      </g>
    </g>
  </g>
</svg>