<?xml version="1.0" standalone="no"?><!DOCTYPE svg PUBLIC "-//W3C//DTD SVG 1.1//EN" "http://www.w3.org/Graphics/SVG/1.1/DTD/svg11.dtd"><svg t="1730903902587" class="icon" viewBox="0 0 1024 1024" version="1.1" xmlns="http://www.w3.org/2000/svg" p-id="12718" width="48" height="48" xmlns:xlink="http://www.w3.org/1999/xlink"><path d="M20.162207 855.145931v-685.02069c0-24.717241 3.531034-49.434483 3.531034-74.151724 3.531034-56.496552 31.77931-91.806897 77.682759-91.806896h836.855172c38.841379 0 70.62069 35.310345 70.62069 81.213793v829.793103c0 28.248276-10.593103 52.965517-35.310345 63.558621-17.655172 7.062069-35.310345 14.124138-52.965517 14.124138-63.558621 3.531034-127.117241 0-190.675862 0h-614.4c-60.027586 0-91.806897-35.310345-91.806897-105.931035 0-10.593103-3.531034-21.186207-3.531034-31.77931z" fill="#2B6DE5" p-id="12719"></path><path d="M645.15531 304.304552h-204.8v180.082758h190.675862v60.027587h-190.675862v233.048275h-70.620689v-533.186206h275.420689v60.027586z" fill="#FFFFFF" p-id="12720"></path></svg>